<?xml version="1.0" standalone="no"?><!DOCTYPE svg PUBLIC "-//W3C//DTD SVG 1.1//EN" "http://www.w3.org/Graphics/SVG/1.1/DTD/svg11.dtd"><svg t="1773065416605" class="icon" viewBox="0 0 1024 1024" version="1.1" xmlns="http://www.w3.org/2000/svg" p-id="31621" xmlns:xlink="http://www.w3.org/1999/xlink" width="200" height="200"><path d="M891.5503 979.840145v-98.608264a289.00429 289.00429 0 0 0-289.00429-289.00429H421.282519a289.00429 289.00429 0 0 0-289.00429 289.00429v98.608264a43.928652 43.928652 0 0 0 43.928653 43.928652h671.530368a43.928652 43.928652 0 0 0 43.81305-43.928652z" fill="#FED150" p-id="31622"></path><path d="M847.73725 968.511176H176.206882A43.928652 43.928652 0 0 1 132.278229 924.813728v55.25762a43.928652 43.928652 0 0 0 43.928653 43.928652h671.530368a43.928652 43.928652 0 0 0 43.81305-43.928652V924.813728a43.928652 43.928652 0 0 1-43.81305 43.697448z" fill="#FED150" opacity=".5" p-id="31623"></path><path d="M511.914265 0a271.548431 271.548431 0 0 0-77.45315 11.560172 179.991872 179.991872 0 0 0-4.73967 79.880785C450.645355 216.984421 535.959422 248.081282 566.940681 242.763604s49.477534-20.923911 46.240687-43.235042-11.560172-26.703996-11.560172-26.703997a37.570558 37.570558 0 1 1-73.985098 11.560172s-9.941748-50.402348 48.783924-59.766087 76.990743 50.286746 78.955972 62.193723 2.196433 85.776473-82.539625 99.301874-169.12531-62.540528-188.777602-186.118763a214.90359 214.90359 0 0 1 0-68.320614A273.398058 273.398058 0 1 0 511.914265 0z" fill="#EB3D72" p-id="31624"></path><path d="M384.28997 31.67487l-2.427636 1.271619c0 3.699255 0.578009 7.39851 0.924814 11.560172 0.462407-4.624069 0.809212-8.78573 1.502822-12.831791zM511.914265 501.711447A273.282457 273.282457 0 0 1 239.556622 250.971325c-0.69361 7.39851-1.040415 14.912621-1.040416 22.426733a273.51366 273.51366 0 1 0 546.911719 0c0-7.514112 0-15.028223-1.040416-22.542334a273.398058 273.398058 0 0 1-272.473244 250.855723z" fill="#EB3D72" p-id="31625"></path></svg>